# xmcd
#
# Track frame offsets:
#	150
#	20440
#	38485
#	59431
#	71524
#	88838
#	104185
#	121869
#	137110
#	147647
#	165962
#	183062
#
# Disc length: 2633 seconds
#
# Revision: 0
# Processed by: cddbd v1.5.2PL0 Copyright (c) Steve Scherf et al.
# Submitted via: dBpowerAMP V4.0
#
DISCID=a50a470c
DTITLE=พาริณี พจนสุนทร - เจ้าดารารัศมี
DYEAR=2008
DGENRE=ThaiNorthern Folk
TTITLE0=เจ้าดารารัศมี
TTITLE1=แต่งหย่องคนเมือง
TTITLE2=แสงราม ฯ ล้านนา
TTITLE3=เวียงสามกษัตริย์สร้าง
TTITLE4=ซึงเสียงไหว
TTITLE5=ดอกเอื้องเมืองเหนือ
TTITLE6=รอเธอ
TTITLE7=แอ่วเวียงพิงค์
TTITLE8=แว่วเสียงซอ
TTITLE9=อินทนนท์
TTITLE10=นักบุญล้านนา
TTITLE11=เจ็ดร้อยปีศรีนครพิงค์
EXTD=
EXTT0=
EXTT1=
EXTT2=
EXTT3=
EXTT4=
EXTT5=
EXTT6=
EXTT7=
EXTT8=
EXTT9=
EXTT10=
EXTT11=
PLAYORDER=
